# xmcd
#
# Track frame offsets:
#	150
#	22423
#	34550
#	48276
#	62145
#	75435
#	88492
#	101330
#	115522
#	127855
#	139975
#	152656
#
# Disc length: 2212 seconds
#
# Revision: 0
# Processed by: cddbd v1.5.1PL2 Copyright (c) Steve Scherf et al.
# Submitted via: dBpowerAMP V4.0
#
DISCID=9508a20c
DTITLE=The 5 Blind Boys of Mississippi - Best of the 5 Blind Boys - 20th Century Masters
DYEAR=2002
DGENRE=Gospel
TTITLE0=Our Father (Which Art in Heaven)
TTITLE1=Precious Memories
TTITLE2=Song of Praise
TTITLE3=There's No Need to Cry
TTITLE4=Somewhere Listening For My Name
TTITLE5=Old Ship of Zion
TTITLE6=Save A Seat for Me
TTITLE7=Lord, Lord You've Been So Good to Me
TTITLE8=Oh Why?
TTITLE9=Sending Up My Timber
TTITLE10=Speak Gently to Your Mother
TTITLE11=His Eye is On the Sparrow
EXTD=MCA Records Cat No. 112867
EXTT0=
EXTT1=
EXTT2=
EXTT3=
EXTT4=
EXTT5=
EXTT6=
EXTT7=
EXTT8=
EXTT9=
EXTT10=
EXTT11=
PLAYORDER=
